HIERARCHY
ROOT Hips
{
  OFFSET -0.589095 22.1471 2.58842
  CHANNELS 6 Xposition Yposition Zposition Zrotation Xrotation Yrotation
  JOINT BN_Bip01_Pelvis
  {
    OFFSET -3.49357 -5.29363 -0.000213444
    CHANNELS 6 Xposition Yposition Zposition Zrotation Xrotation Yrotation
    JOINT BN_leg_R_01
    {
      OFFSET 10.8127 -7.82778 -6.29737
      CHANNELS 6 Xposition Yposition Zposition Zrotation Xrotation Yrotation
      JOINT BN_leg_R_02
      {
        OFFSET 8.91071 0 0
        CHANNELS 6 Xposition Yposition Zposition Zrotation Xrotation Yrotation
        JOINT BN_leg_R_03
        {
          OFFSET 15.6024 0 0
          CHANNELS 6 Xposition Yposition Zposition Zrotation Xrotation Yrotation
          JOINT BN_leg_R_04
          {
            OFFSET 9.68174 0 0
            CHANNELS 6 Xposition Yposition Zposition Zrotation Xrotation Yrotation
            JOINT BN_leg_R_05
            {
              OFFSET 10.6982 0 0
              CHANNELS 6 Xposition Yposition Zposition Zrotation Xrotation Yrotation
              JOINT BN_Leg_R_05Nub
              {
                OFFSET 11.1504 0 0
                CHANNELS 6 Xposition Yposition Zposition Zrotation Xrotation Yrotation
                End Site
                {
                  OFFSET 0 0 0
                }
              }
            }
          }
        }
      }
    }
    JOINT BN_leg_R_06
    {
      OFFSET 6.51511 -7.99898 -4.29089
      CHANNELS 6 Xposition Yposition Zposition Zrotation Xrotation Yrotation
      JOINT BN_Leg_R_07
      {
        OFFSET 9.03709 0 0
        CHANNELS 6 Xposition Yposition Zposition Zrotation Xrotation Yrotation
        JOINT BN_Leg_R_08
        {
          OFFSET 18.7638 0 0
          CHANNELS 6 Xposition Yposition Zposition Zrotation Xrotation Yrotation
          JOINT BN_Leg_R_09
          {
            OFFSET 10.9666 0 0
            CHANNELS 6 Xposition Yposition Zposition Zrotation Xrotation Yrotation
            JOINT BN_Leg_R_10
            {
              OFFSET 10.8726 0 0
              CHANNELS 6 Xposition Yposition Zposition Zrotation Xrotation Yrotation
              JOINT BN_Leg_R_10Nub
              {
                OFFSET 11.2648 0 0
                CHANNELS 6 Xposition Yposition Zposition Zrotation Xrotation Yrotation
                End Site
                {
                  OFFSET 0 0 0
                }
              }
            }
          }
        }
      }
    }
    JOINT BN_Leg_R_11
    {
      OFFSET 2.71429 -8.18693 -0.209972
      CHANNELS 6 Xposition Yposition Zposition Zrotation Xrotation Yrotation
      JOINT BN_Leg_R_12
      {
        OFFSET 9.8713 0 0
        CHANNELS 6 Xposition Yposition Zposition Zrotation Xrotation Yrotation
        JOINT BN_Leg_R_13
        {
          OFFSET 21.8657 0 0
          CHANNELS 6 Xposition Yposition Zposition Zrotation Xrotation Yrotation
          JOINT BN_Leg_R_14
          {
            OFFSET 11.0011 0 0
            CHANNELS 6 Xposition Yposition Zposition Zrotation Xrotation Yrotation
            JOINT BN_Leg_R_15
            {
              OFFSET 12.8798 0 0
              CHANNELS 6 Xposition Yposition Zposition Zrotation Xrotation Yrotation
              JOINT BN_Leg_R_15Nub
              {
                OFFSET 13.0642 0 0
                CHANNELS 6 Xposition Yposition Zposition Zrotation Xrotation Yrotation
                End Site
                {
                  OFFSET 0 0 0
                }
              }
            }
          }
        }
      }
    }
    JOINT BN_Leg_L_11
    {
      OFFSET 2.7143 8.18692 -0.209982
      CHANNELS 6 Xposition Yposition Zposition Zrotation Xrotation Yrotation
      JOINT BN_Leg_L_12
      {
        OFFSET 9.87129 0 0
        CHANNELS 6 Xposition Yposition Zposition Zrotation Xrotation Yrotation
        JOINT BN_Leg_L_13
        {
          OFFSET 21.8657 0 0
          CHANNELS 6 Xposition Yposition Zposition Zrotation Xrotation Yrotation
          JOINT BN_Leg_L_14
          {
            OFFSET 11.0011 0 0
            CHANNELS 6 Xposition Yposition Zposition Zrotation Xrotation Yrotation
            JOINT BN_Leg_L_15
            {
              OFFSET 12.8798 0 0
              CHANNELS 6 Xposition Yposition Zposition Zrotation Xrotation Yrotation
              JOINT BN_Leg_L_15Nub
              {
                OFFSET 13.0642 0 0
                CHANNELS 6 Xposition Yposition Zposition Zrotation Xrotation Yrotation
                End Site
                {
                  OFFSET 0 0 0
                }
              }
            }
          }
        }
      }
    }
    JOINT BN_leg_L_06
    {
      OFFSET 6.51511 7.99896 -4.29091
      CHANNELS 6 Xposition Yposition Zposition Zrotation Xrotation Yrotation
      JOINT BN_Leg_L_07
      {
        OFFSET 9.03709 0 0
        CHANNELS 6 Xposition Yposition Zposition Zrotation Xrotation Yrotation
        JOINT BN_Leg_L_08
        {
          OFFSET 18.7638 0 0
          CHANNELS 6 Xposition Yposition Zposition Zrotation Xrotation Yrotation
          JOINT BN_Leg_L_09
          {
            OFFSET 10.9666 0 0
            CHANNELS 6 Xposition Yposition Zposition Zrotation Xrotation Yrotation
            JOINT BN_Leg_L_10
            {
              OFFSET 10.8726 0 0
              CHANNELS 6 Xposition Yposition Zposition Zrotation Xrotation Yrotation
              JOINT BN_Leg_L_10Nub
              {
                OFFSET 11.2649 0 0
                CHANNELS 6 Xposition Yposition Zposition Zrotation Xrotation Yrotation
                End Site
                {
                  OFFSET 0 0 0
                }
              }
            }
          }
        }
      }
    }
    JOINT BN_leg_L_01
    {
      OFFSET 10.8127 7.82776 -6.29737
      CHANNELS 6 Xposition Yposition Zposition Zrotation Xrotation Yrotation
      JOINT BN_leg_L_02
      {
        OFFSET 8.91072 0 0
        CHANNELS 6 Xposition Yposition Zposition Zrotation Xrotation Yrotation
        JOINT BN_leg_L_03
        {
          OFFSET 15.6024 0 0
          CHANNELS 6 Xposition Yposition Zposition Zrotation Xrotation Yrotation
          JOINT BN_leg_L_04
          {
            OFFSET 9.68174 0 0
            CHANNELS 6 Xposition Yposition Zposition Zrotation Xrotation Yrotation
            JOINT BN_leg_L_05
            {
              OFFSET 10.6982 0 0
              CHANNELS 6 Xposition Yposition Zposition Zrotation Xrotation Yrotation
              JOINT BN_Leg_L_05Nub
              {
                OFFSET 11.1504 0 0
                CHANNELS 6 Xposition Yposition Zposition Zrotation Xrotation Yrotation
                End Site
                {
                  OFFSET 0 0 0
                }
              }
            }
          }
        }
      }
    }
    JOINT BN_Eye_L_01
    {
      OFFSET 28.5502 2.54627 -3.93739
      CHANNELS 6 Xposition Yposition Zposition Zrotation Xrotation Yrotation
      JOINT BN_Eye_L_02
      {
        OFFSET 2.30267 0 0
        CHANNELS 6 Xposition Yposition Zposition Zrotation Xrotation Yrotation
        JOINT BN_Eye_L_03
        {
          OFFSET 5.31894 0 0
          CHANNELS 6 Xposition Yposition Zposition Zrotation Xrotation Yrotation
          JOINT BN_Eye_L_04
          {
            OFFSET 9.71244 0 0
            CHANNELS 6 Xposition Yposition Zposition Zrotation Xrotation Yrotation
            End Site
            {
              OFFSET 0 0 0
            }
          }
        }
      }
    }
    JOINT BN_Eye_R_01
    {
      OFFSET 28.5502 -2.54612 -3.93738
      CHANNELS 6 Xposition Yposition Zposition Zrotation Xrotation Yrotation
      JOINT BN_Eye_R_02
      {
        OFFSET 2.30267 0 0
        CHANNELS 6 Xposition Yposition Zposition Zrotation Xrotation Yrotation
        JOINT BN_Eye_R_03
        {
          OFFSET 5.31896 0 0
          CHANNELS 6 Xposition Yposition Zposition Zrotation Xrotation Yrotation
          JOINT BN_Eye_R_04
          {
            OFFSET 9.71244 0 0
            CHANNELS 6 Xposition Yposition Zposition Zrotation Xrotation Yrotation
            End Site
            {
              OFFSET 0 0 0
            }
          }
        }
      }
    }
    JOINT BN_Arm_L_01
    {
      OFFSET 15.9737 8.03546 -8.36195
      CHANNELS 6 Xposition Yposition Zposition Zrotation Xrotation Yrotation
      JOINT BN_Arm_L_02
      {
        OFFSET 16.8869 0 0
        CHANNELS 6 Xposition Yposition Zposition Zrotation Xrotation Yrotation
        JOINT BN_Arm_L_03
        {
          OFFSET 8.42975 0 0
          CHANNELS 6 Xposition Yposition Zposition Zrotation Xrotation Yrotation
          JOINT BN_Arm_L_04
          {
            OFFSET 7.53864 -0.0312023 2.09083
            CHANNELS 6 Xposition Yposition Zposition Zrotation Xrotation Yrotation
            End Site
            {
              OFFSET 0 0 0
            }
          }
        }
      }
    }
    JOINT BN_Arm_R_01
    {
      OFFSET 14.7806 -6.70232 -9.44366
      CHANNELS 6 Xposition Yposition Zposition Zrotation Xrotation Yrotation
      JOINT BN_Arm_R_02
      {
        OFFSET 19.9827 0 0
        CHANNELS 6 Xposition Yposition Zposition Zrotation Xrotation Yrotation
        JOINT BN_Arm_R_03
        {
          OFFSET 17.4553 0 0
          CHANNELS 6 Xposition Yposition Zposition Zrotation Xrotation Yrotation
          JOINT BN_Arm_R_04
          {
            OFFSET 13.3834 -2.22657 7.3982
            CHANNELS 6 Xposition Yposition Zposition Zrotation Xrotation Yrotation
            End Site
            {
              OFFSET 0 0 0
            }
          }
        }
      }
    }
  }
}
MOTION
Frames:	4
Frame Time:	0.0333333
-1.97901 19.6082 -0.219456 -46.2089 1.77112 31.1776 -3.49325 -8.0258 -5.32907e-015 -163.39 -84.4569 153.045 10.8127 -7.82778 -6.29736 -43.2621 51.0759 -30.5594 8.91072 -1.90735e-006 9.53674e-007 39.9139 -0.351095 0.693026 15.6024 1.43051e-006 -9.53674e-007 -47.5035 17.8457 31.9249 9.68174 -3.8147e-006 1.20792e-013 -36.4606 -1.14123 -14.7259 10.6982 7.10543e-015 -2.86102e-006 -53.9552 4.11291 -2.30399 11.1504 3.8147e-006 -1.90735e-006 1.92694e-007 9.90956e-006 1.0587e-006 6.5151 -7.99897 -4.29089 -133.555 42.3022 -1.95145 9.03709 -2.86102e-006 -1.90735e-006 90.5846 -2.15986 -2.94495 18.7638 -9.53675e-007 -3.55271e-015 -61.7291 19.3341 37.8558 10.9665 -3.8147e-006 3.8147e-006 -30.9282 -0.470137 -1.63233 10.8726 3.8147e-006 -4.08562e-014 -29.1642 -0.0144298 -2.84794 11.2648 3.8147e-006 1.90735e-006 -3.21867e-007 -1.00584e-008 -6.48425e-009 2.71429 -8.18693 -0.209967 156.91 30.81 7.01538 9.87129 3.8147e-006 3.8147e-006 91.6391 1.92751 -0.633581 21.8657 1.90735e-006 1.90735e-006 -60.182 15.8655 28.1397 11.0011 -6.25277e-013 -3.55271e-015 -26.3637 -0.160619 -0.907908 12.8798 -9.94759e-014 5.72205e-006 -37.2504 -0.00358692 0.0113045 13.0642 3.81469e-006 -9.53674e-006 5.53005e-007 1.04701e-005 3.93345e-007 2.7143 8.18692 -0.209976 117.377 -27.0006 13.805 9.8713 -9.53674e-007 -1.90735e-006 0.0349826 -2.4657 0.000750112 21.8657 -2.16716e-013 1.90735e-006 13.2287 -4.89438 26.8055 11.0011 -7.10543e-013 5.72205e-006 13.4611 0.504154 -0.731829 12.8798 -7.62939e-006 3.8147e-006 21.4827 0.0499404 0.100605 13.0642 -2.84217e-014 -1.90735e-006 -5.58781e-007 8.33514e-007 9.7326e-008 6.51512 7.99896 -4.2909 117.385 -17.6208 25.0433 9.03709 9.53674e-007 -1.90735e-006 -76.6322 1.87452 -2.83454 18.7638 -2.86102e-006 -4.44089e-014 76.9434 -40.2376 52.0768 10.9666 0 0 49.4082 0.207941 -2.78669 10.8726 3.81469e-006 -1.45661e-013 47.575 0.0155304 -3.80646 11.2649 3.81469e-006 1.90735e-006 2.01991e-007 7.80031e-008 9.79391e-009 10.8127 7.82776 -6.29737 118.973 -28.7538 43.2082 8.91072 9.53674e-007 2.86102e-006 -97.4956 -1.73562 1.75018 15.6024 2.86102e-006 9.53674e-007 123.696 -48.1501 47.3995 9.68173 1.90735e-006 8.52651e-014 49.7779 2.10412 -17.6533 10.6982 0 8.88178e-016 69.7638 -4.10644 -3.93824 11.1504 -3.8147e-006 -9.53674e-007 4.72342e-008 4.01501e-006 -3.27747e-009 28.5502 2.54627 -3.93738 89.995 -40.8534 50.3814 2.30267 -1.90735e-006 1.77636e-015 -48.9933 2.97227 -25.8395 5.31895 0 2.38419e-007 -18.1994 3.74485 -24.0909 9.71243 -7.10543e-015 -7.10543e-015 -24.7845 -1.88574 -17.7156 28.5502 -2.54612 -3.93737 89.9968 -39.1541 129.609 2.30267 -1.90735e-006 4.76837e-007 -75.5756 -4.54615 5.53625 5.31895 8.88179e-016 -1.77636e-015 -35.8214 -2.76638 7.97803 9.71243 9.53675e-007 -5.36442e-007 -39.3263 -8.84126 4.98521 15.9737 8.03546 -8.36195 73.949 7.37181 -25.4214 16.8869 -2.38419e-006 -1.90735e-006 -34.9852 2.27051 -14.797 8.42975 -3.55271e-015 -9.53675e-007 -21.559 -1.24286 10.0876 7.53865 -0.0312079 2.09083 -7.43721 -5.07811 17.6339 14.7806 -6.70232 -9.44365 -12.6334 -17.5742 6.08758 19.9827 1.90735e-006 -3.8147e-006 42.2203 -6.64436 -18.6019 17.4553 3.8147e-006 9.53674e-007 57.4055 -3.2929 1.95491 13.3835 -2.22654 7.39821 8.80422 1.64884 15.3052 
-2.03888 19.7222 -0.219456 -46.3691 1.07529 30.4725 -3.49325 -8.0258 -3.55271e-015 -163.389 -84.4569 153.045 10.8127 -7.82778 -6.29736 -44.5231 51.2319 -29.2545 8.91072 -1.90735e-006 9.53674e-007 40.5289 -0.342447 0.708509 15.6024 1.43051e-006 -9.53674e-007 -48.0075 18.1182 32.4942 9.68174 -3.8147e-006 1.03029e-013 -36.279 -1.12404 -14.6837 10.6982 -7.10543e-015 -2.86102e-006 -53.7359 4.11315 -2.28086 11.1504 3.8147e-006 -1.90735e-006 1.92694e-007 9.90956e-006 1.0587e-006 6.5151 -7.99897 -4.29089 -135.042 41.2724 -0.602735 9.03709 -2.86102e-006 -1.90735e-006 90.7148 -2.16566 -2.94506 18.7638 -9.53675e-007 1.77636e-015 -60.0228 20.2508 38.3362 10.9665 -3.8147e-006 3.8147e-006 -31.955 -0.458361 -1.70331 10.8726 3.8147e-006 -5.15143e-014 -30.1833 -0.0143832 -2.91686 11.2648 3.8147e-006 1.90735e-006 -3.21867e-007 -1.00584e-008 -6.48425e-009 2.71429 -8.18693 -0.209967 156.522 29.7555 8.04518 9.87129 3.8147e-006 3.8147e-006 92.1445 1.91987 -0.631969 21.8657 1.90735e-006 1.90735e-006 -60.6341 15.5792 27.7709 11.0011 -6.2883e-013 3.55271e-015 -26.164 -0.164371 -0.906142 12.8798 -9.94759e-014 5.72205e-006 -37.0111 -0.00351215 0.0112828 13.0642 3.81469e-006 -9.53674e-006 5.53005e-007 1.04701e-005 3.93345e-007 2.7143 8.18692 -0.209976 116.946 -26.9727 13.1795 9.8713 -9.53674e-007 -1.90735e-006 0.0349828 -2.46571 0.000750089 21.8657 -2.16716e-013 1.90735e-006 12.7238 -5.07959 27.2392 11.0011 -7.21201e-013 5.72205e-006 13.6169 0.501563 -0.735667 12.8798 -7.62939e-006 3.8147e-006 21.6769 0.0502495 0.100355 13.0642 -7.10543e-015 -1.90735e-006 -5.58781e-007 8.33514e-007 1.07132e-007 6.51512 7.99896 -4.2909 116.902 -18.2134 24.1388 9.03709 9.53674e-007 -1.90735e-006 -76.3374 1.86844 -2.82936 18.7638 -2.86102e-006 -4.79616e-014 76.3651 -40.582 52.5105 10.9666 3.55271e-015 -7.10543e-015 49.6128 0.206373 -2.79637 10.8726 3.81469e-006 -1.49214e-013 47.7783 0.0155455 -3.81712 11.2649 3.81469e-006 1.90735e-006 2.01991e-007 7.80031e-008 9.79392e-009 10.8127 7.82776 -6.29737 118.488 -28.9531 43.1528 8.91072 9.53674e-007 2.86102e-006 -97.2364 -1.72387 1.75209 15.6024 2.86102e-006 9.53674e-007 121.53 -48.8213 47.7012 9.68173 1.90735e-006 8.52651e-014 50.7216 2.16268 -17.8461 10.6982 -7.10543e-015 8.88178e-016 70.8938 -4.10442 -4.03474 11.1504 -3.8147e-006 -9.53674e-007 4.72697e-008 4.01501e-006 -3.31285e-009 28.5502 2.54627 -3.93738 89.995 -40.8534 50.3814 2.30267 -1.90735e-006 -2.66454e-015 -46.5928 2.41825 -22.1097 5.31895 1.77636e-015 2.38419e-007 -18.4019 4.00868 -23.4996 9.71243 8.88179e-015 -1.42109e-014 -25.0821 0.567288 -17.6915 28.5502 -2.54612 -3.93737 89.9967 -39.1541 129.608 2.30267 -1.90735e-006 4.76837e-007 -74.2148 -4.21403 3.64044 5.31895 8.88179e-016 -3.55271e-015 -35.1019 -2.26668 6.63704 9.71243 9.53675e-007 -5.36442e-007 -39.1159 -7.26969 4.26434 15.9737 8.03546 -8.36195 73.0024 8.88281 -25.7254 16.8869 -2.38419e-006 -1.90735e-006 -35.1875 2.27316 -14.8488 8.42975 -1.42109e-014 -9.53675e-007 -19.2558 -1.06766 9.19835 7.53865 -0.0312079 2.09083 -7.44764 -5.13569 10.6944 14.7806 -6.70232 -9.44365 -12.7544 -16.4239 6.49149 19.9827 1.90735e-006 -3.8147e-006 42.6116 -6.63162 -18.6483 17.4553 3.8147e-006 9.53674e-007 58.1562 -3.36609 1.91791 13.3835 -2.22654 7.39821 8.80348 1.65193 15.3904 
-2.2015 20.0206 -0.219456 -45.7943 -0.129778 29.294 -3.49325 -8.0258 -1.77636e-015 -163.39 -84.4569 153.045 10.8127 -7.82778 -6.29736 -48.496 51.6374 -25.2073 8.91072 -1.90735e-006 9.53674e-007 42.4583 -0.322608 0.763129 15.6024 1.43051e-006 -9.53674e-007 -49.7744 18.1607 33.1446 9.68174 -3.8147e-006 1.15463e-013 -35.611 -1.07026 -14.5293 10.6982 0 -2.86102e-006 -52.943 4.1129 -2.18531 11.1504 3.8147e-006 -1.90735e-006 1.92694e-007 9.90956e-006 1.0587e-006 6.5151 -7.99897 -4.29089 -137.573 39.2259 2.09019 9.03709 -2.86102e-006 -1.90735e-006 91.3033 -2.17597 -2.94375 18.7638 -9.53675e-007 7.10543e-015 -58.5581 20.9935 38.5377 10.9665 -3.8147e-006 3.8147e-006 -32.875 -0.44658 -1.76167 10.8726 3.8147e-006 -6.39488e-014 -31.0924 -0.0149548 -2.97381 11.2648 3.8147e-006 1.90735e-006 -3.21867e-007 -1.00583e-008 -6.48426e-009 2.71429 -8.18693 -0.209967 155.98 28.2904 9.44722 9.87129 3.8147e-006 3.8147e-006 92.9156 1.90854 -0.632445 21.8657 1.90735e-006 1.90735e-006 -61.698 14.8109 26.8485 11.0011 -5.82645e-013 3.55271e-015 -25.585 -0.175196 -0.900935 12.8798 -9.23705e-014 5.72205e-006 -36.3107 -0.00456102 0.0129403 13.0642 3.81469e-006 -9.53674e-006 5.53005e-007 1.04701e-005 3.93345e-007 2.7143 8.18692 -0.209976 115.696 -26.8806 11.4179 9.8713 -9.53674e-007 -1.90735e-006 0.034983 -2.46573 0.000750074 21.8657 -2.11386e-013 1.90735e-006 11.9291 -5.44536 27.7308 11.0011 -7.03437e-013 5.72205e-006 14.0634 0.493851 -0.747397 12.8798 -7.62939e-006 3.8147e-006 22.2307 0.0486257 0.0935246 13.0642 0 -1.90735e-006 -5.58781e-007 8.33514e-007 1.09732e-006 6.51512 7.99896 -4.2909 115.853 -19.2579 22.4959 9.03709 9.53674e-007 -1.90735e-006 -75.8139 1.86003 -2.82115 18.7638 -2.86102e-006 -5.50671e-014 75.6467 -40.643 52.599 10.9666 0 -1.77636e-015 49.6472 0.204086 -2.79957 10.8726 3.81469e-006 -1.5099e-013 47.8162 0.0142969 -3.81711 11.2649 3.81469e-006 1.90735e-006 2.01991e-007 7.80031e-008 9.79392e-009 10.8127 7.82776 -6.29737 117.568 -29.6824 42.5397 8.91072 9.53674e-007 2.86102e-006 -96.7554 -1.69436 1.75816 15.6024 2.86102e-006 9.53674e-007 118.653 -48.9306 47.6065 9.68173 1.90735e-006 8.34888e-014 51.3963 2.2001 -17.9819 10.6982 -7.10543e-015 2.66454e-015 71.696 -4.10534 -4.09835 11.1504 -3.8147e-006 -9.53674e-007 4.72697e-008 4.01501e-006 -3.31285e-009 28.5502 2.54627 -3.93738 89.995 -40.8534 50.3814 2.30267 -1.90735e-006 0 -44.8769 2.15458 -16.9527 5.31895 -1.77636e-015 2.38419e-007 -19.0045 4.36441 -22.0319 9.71243 0 1.24345e-014 -26.752 3.14578 -17.6521 28.5502 -2.54612 -3.93737 89.9969 -39.1541 129.609 2.30267 -1.90735e-006 4.76837e-007 -71.5061 -3.82581 1.71606 5.31895 2.66454e-015 8.88179e-016 -32.9907 -1.7511 5.40421 9.71243 9.53675e-007 -5.36442e-007 -38.1191 -5.86814 3.82264 15.9737 8.03546 -8.36195 72.1259 10.4476 -26.0196 16.8869 -2.38419e-006 -1.90735e-006 -35.7232 2.27964 -14.8805 8.42975 -3.55271e-015 -9.53675e-007 -16.5647 -0.895025 8.20346 7.53865 -0.031208 2.09083 -7.44944 -5.11504 3.57551 14.7806 -6.70232 -9.44365 -12.9932 -15.4187 7.23162 19.9827 1.90735e-006 -3.8147e-006 42.9425 -6.60273 -18.7791 17.4553 3.8147e-006 9.53674e-007 58.814 -3.56873 1.81913 13.3835 -2.22654 7.39821 8.80274 1.65596 15.4427 
-2.45589 20.4647 -0.219456 -44.7277 -1.77051 27.7449 -3.49325 -8.0258 0 -163.39 -84.4568 153.045 10.8127 -7.82778 -6.29736 -54.395 51.8874 -19.0343 8.91072 -1.90735e-006 9.53674e-007 45.0702 -0.286126 0.834333 15.6024 1.43051e-006 -9.53674e-007 -52.1303 18.0481 33.8563 9.68174 -3.8147e-006 1.06581e-013 -34.6512 -0.993051 -14.3062 10.6982 0 -2.86102e-006 -51.8034 4.11482 -2.05108 11.1504 3.8147e-006 -1.90735e-006 1.92694e-007 9.90956e-006 1.0587e-006 6.5151 -7.99897 -4.29089 -140.665 36.2584 5.64771 9.03709 -2.86102e-006 -1.90735e-006 92.1831 -2.19384 -2.9419 18.7638 -9.53675e-007 -1.77636e-015 -57.1499 21.5919 38.5057 10.9665 -3.8147e-006 3.8147e-006 -33.7112 -0.436249 -1.81683 10.8726 3.8147e-006 -6.39488e-014 -31.9216 -0.0155223 -3.02383 11.2648 3.8147e-006 1.90735e-006 -3.21867e-007 -1.00584e-008 -6.48424e-009 2.71429 -8.18693 -0.209967 155.256 26.3867 11.1906 9.87129 3.8147e-006 3.8147e-006 93.9456 1.89357 -0.629461 21.8657 1.90735e-006 1.90735e-006 -63.2275 13.6737 25.4735 11.0011 -5.43565e-013 0 -24.6895 -0.190912 -0.894488 12.8798 -9.94759e-014 5.72205e-006 -35.2303 -0.0112408 0.0228292 13.0642 3.81469e-006 -9.53674e-006 5.53005e-007 1.04701e-005 3.93345e-007 2.7143 8.18692 -0.209976 113.876 -26.7253 8.80454 9.8713 -9.53674e-007 -1.90735e-006 0.0349835 -2.46577 0.000750136 21.8657 -1.92735e-013 1.90735e-006 11.0594 -5.87236 28.2649 11.0011 -6.99884e-013 5.72205e-006 14.5815 0.485319 -0.758574 12.8798 -7.62939e-006 3.8147e-006 22.8726 0.0483162 0.089764 13.0642 0 -1.90735e-006 -5.58781e-007 8.33514e-007 1.09733e-006 6.51512 7.99896 -4.2909 114.276 -20.6415 20.2453 9.03709 9.53674e-007 -1.90735e-006 -75.0399 1.842 -2.80634 18.7638 -2.86102e-006 -7.28306e-014 74.7341 -40.4977 52.4392 10.9666 3.55271e-015 3.55271e-015 49.5623 0.204442 -2.79478 10.8726 3.81469e-006 -1.42109e-013 47.7281 0.0154297 -3.8125 11.2649 3.81469e-006 1.90735e-006 2.01948e-007 7.80031e-008 9.79392e-009 10.8127 7.82776 -6.29737 116.277 -30.8 41.4748 8.91072 9.53674e-007 2.86102e-006 -96.1252 -1.6597 1.76382 15.6024 2.86102e-006 9.53674e-007 115.211 -48.588 47.2557 9.68173 1.90735e-006 8.70415e-014 51.8456 2.22683 -18.0733 10.6982 -1.42109e-014 -8.4377e-015 72.237 -4.10574 -4.1361 11.1504 -3.8147e-006 -9.53674e-007 4.72697e-008 4.01501e-006 -3.31284e-009 28.5502 2.54627 -3.93738 89.9951 -40.8534 50.3814 2.30267 -1.90735e-006 7.10543e-015 -43.5909 2.04192 -11.5629 5.31895 -1.77636e-015 2.38419e-007 -19.7962 4.73873 -20.0189 9.71243 1.77636e-015 -5.32907e-015 -29.0084 5.51684 -17.5678 28.5502 -2.54612 -3.93737 89.9968 -39.1541 129.609 2.30267 -1.90735e-006 4.76837e-007 -67.7202 -3.39364 -0.234228 5.31895 4.44089e-015 1.77636e-015 -29.7793 -1.22032 4.24736 9.71243 9.53675e-007 -5.36442e-007 -36.518 -4.5986 3.57305 15.9737 8.03546 -8.36195 71.2998 12.0925 -26.3219 16.8869 -2.38419e-006 -1.90735e-006 -36.517 2.29059 -14.8987 8.42975 0 -9.53675e-007 -13.5614 -0.723838 7.11737 7.53865 -0.031208 2.09083 -7.43719 -5.04017 -2.51685 14.7806 -6.70232 -9.44365 -13.3605 -14.5225 8.27219 19.9827 1.90735e-006 -3.8147e-006 43.2301 -6.55984 -18.982 17.4553 3.8147e-006 9.53674e-007 59.3974 -3.89036 1.65966 13.3835 -2.22654 7.39821 8.80222 1.65866 15.4779 
